<?xml version="1.0" encoding="utf-8"?>
<!-- Generator: Adobe Illustrator 21.0.0, SVG Export Plug-In . SVG Version: 6.00 Build 0)  -->
<svg version="1.1" id="Layer_1" xmlns="http://www.w3.org/2000/svg" xmlns:xlink="http://www.w3.org/1999/xlink" x="0px" y="0px"
	 width="32px" height="32px" viewBox="0 0 32 32" style="enable-background:new 0 0 32 32;" xml:space="preserve">
<path d="M3,15v14c0,1.5,1.5,3,3,3h20c1.5,0,3-1.5,3-3V15c0-1.5-1.5-3-3-3H6C4.5,12,3,13.5,3,15z M28.4,22c0,1.1-0.9,1.9-1.9,1.9
	s-1.9-0.9-1.9-1.9s0.9-1.9,1.9-1.9S28.4,20.9,28.4,22z M24,14v16H6V14H24z"/>
</svg>
