<?xml version="1.0" encoding="utf-8"?>
<!-- Generator: Adobe Illustrator 23.0.6, SVG Export Plug-In . SVG Version: 6.00 Build 0)  -->
<svg version="1.1" id="Layer_1" xmlns="http://www.w3.org/2000/svg" xmlns:xlink="http://www.w3.org/1999/xlink" x="0px" y="0px"
	 viewBox="0 0 232 144" style="enable-background:new 0 0 232 144;" xml:space="preserve">
<style type="text/css">
	.st0{fill:#F9FCFC;}
	.st1{fill:#FFFFFF;}
	.st2{opacity:0.75;fill:#FFFFFF;}
	.st3{opacity:0.9;fill:#FFFFFF;}
	.st4{opacity:0.3;}
	.st5{opacity:0.65;fill:#FFFFFF;}
	.st6{opacity:0.25;}
	.st7{opacity:0.45;fill:#FFFFFF;}
	.st8{opacity:0.5;}
	.st9{clip-path:url(#SVGID_2_);}
	.st10{fill:none;}
	.st11{opacity:0.6;fill:#FFFFFF;}
	.st12{opacity:0.4;}
	.st13{opacity:0.2;fill:#231F20;}
	.st14{opacity:0.3;fill:#231F20;}
	.st15{opacity:0.4;fill:#FFFFFF;}
	.st16{clip-path:url(#SVGID_4_);}
	.st17{opacity:0.45;fill:#231F20;}
	.st18{opacity:0.7;}
</style>
<g>
	<g>
		<polygon class="st0" points="148,106.1 148,106.1 148,106.1 		"/>
		<path class="st1" d="M148,106.1c3.2-0.1,6-0.4,7.8-1.4c-7-1.6-13.2-5.3-17.8-10.4v7.3C138.1,105,142.6,106,148,106.1z"/>
		<path class="st2" d="M155.9,104.7c1.3-0.7,2.1-1.7,2.2-3.1v-7.9c-3,2.5-6.4,4-10,4c-3.6,0-7-1.5-10-4v0.6
			C142.7,99.4,148.9,103.1,155.9,104.7z"/>
		<path class="st1" d="M127.4,60.9L127.4,60.9c-0.9-0.2-1.5-0.1-1.9,0c0,0,0,0.1,0,0.1c0.5-0.1,0.9-0.2,1.4-0.2
			C127.1,60.8,127.3,60.8,127.4,60.9z"/>
		<path class="st1" d="M134.3,44.9c0,1.4-0.7,7.3-1.2,8.5c-0.6,1.2-2.5,2.7-3.1,4.1c-0.3,0.7-0.6,2.5-0.8,4.1
			c-0.2,1.5-0.3,2.7-0.3,2.7h-1.4l0-3.5c-0.2,0-0.3,0-0.5,0c-0.5,0-1,0.1-1.4,0.2c-2.2,0.5-3.7,2.3-3.7,6.1c0,4.5,2.2,10.1,5.2,10.1
			c0.2,0,0.4,0,0.6-0.1c2.2,6.6,5.9,12.7,10.5,16.5c3,2.5,6.4,4,10,4V52.1C139,50.9,134.3,43.5,134.3,44.9z"/>
		<path class="st3" d="M170.6,61c0,0,0-0.1,0-0.1c-0.4-0.1-1.1-0.2-1.9,0l0,3.5h-1.4c0,0-0.5-5.4-1.1-6.8c-0.6-1.4-2.5-2.9-3.1-4.1
			c-0.6-1.2-8.3-0.4-15-1.3c0,0,0,0,0,0v45.6c3.6,0,7-1.5,10-4c4.6-3.8,8.3-9.9,10.5-16.5c0.2,0,0.4,0.1,0.6,0.1
			c2.9,0,5.2-5.6,5.2-10.1C174.3,63.3,172.8,61.5,170.6,61z"/>
		<path class="st4" d="M127.4,60.9L127.4,60.9l0,3.5h1.4c0,0,0.1-1.3,0.3-2.7c0.2-1.6,0.5-3.4,0.8-4.1c0.6-1.4,2.5-2.9,3.1-4.1
			c0.6-1.2,1.2-7.1,1.2-8.5c0-1.4,4.7,6,13.7,7.2c0,0,0,0,0,0c6.7,0.9,14.4,0.1,15,1.3c0.6,1.2,2.5,2.7,3.1,4.1
			c0.6,1.4,1.1,6.8,1.1,6.8h1.4l0-3.5c0.9-0.2,1.5-0.1,1.9,0c0.5,0.1,0.8,0.4,0.8,0.4s1-4.5,0.8-10.3c-0.2-5.8-3.1-13.2-9.9-17.1
			c-6-3.3-10-3.3-14.2-3.3c-4.2,0-8.3,0.1-14.3,3.4c-6.9,3.8-9.7,11.3-9.9,17c-0.2,5.8,0.8,10.3,0.8,10.3s0.2-0.2,0.8-0.4
			C125.9,60.8,126.6,60.7,127.4,60.9z"/>
		<path class="st5" d="M184.2,115.7c-4.6-5.6-19.9-9.5-24.7-10.6l0,0l-3.6,8.8c0,0-1.2-1.6-3.1-3.5l-3.4,4.5
			c2.5,7.3,4.2,18.2,4.6,29.1h35.4C189.4,144,186.7,118.8,184.2,115.7z"/>
		<path class="st5" d="M146.8,114.9l-3.6-4.5c-1.8,1.9-3.1,3.5-3.1,3.5l-3.6-8.8l0,0c-4.2,1-16.1,4-22.2,8.4
			c-2.9,2-4.8,3.7-7.7,30.5h36.2C143.1,132.6,144,121.3,146.8,114.9z"/>
		<path class="st6" d="M154,144c-0.4-11-2.1-21.9-4.6-29.1l3.4-4.5c-1.4-1.4-3.1-3-4.8-4.2h0c-1.8,1.2-3.5,2.8-4.8,4.2l3.6,4.5
			c-2.8,6.4-3.7,17.8-4,29.1H154z"/>
		<path class="st7" d="M140.1,113.8c0,0,1.2-1.6,3.1-3.5c1.4-1.4,3-3,4.8-4.2l0,0c-5.4-0.1-9.9-1.1-10-4.5c0,0,0-0.1,0-0.1l-1.5,3.5
			l0,0L140.1,113.8z"/>
		<path class="st7" d="M155.9,104.7c-1.8,1-4.7,1.3-7.8,1.4l0,0c1.8,1.2,3.5,2.8,4.8,4.2c1.8,1.9,3.1,3.5,3.1,3.5l3.6-8.8l0,0
			l-1.5-3.5c0,0,0,0.1,0,0.1C158,103,157.2,104,155.9,104.7z"/>
	</g>
	<g class="st8">
		<defs>
			<path id="SVGID_1_" class="st8" d="M105,28v116h0.7l0-0.5c3-27.2,4.9-28.6,8.1-30.8c6-4.3,17.1-7.3,22.1-8.5l1.2-2.9v-7.2
				c-4.2-3.7-7.9-9.4-10.2-16c-3.8,0-6.1-6.5-6.1-11.1c0-3.7,1.4-5.5,2.8-6.4c-0.3-1.5-0.8-5.3-0.7-9.8c0.2-5.9,3-13.7,10.3-17.8
				c6.3-3.5,10.8-3.5,14.7-3.5c4.1,0,8.4,0,14.7,3.5c7.4,4.1,10.3,12.2,10.4,17.9c0.1,4.5-0.4,8.3-0.7,9.8c1.4,0.9,2.8,2.6,2.8,6.3
				c0,4.6-2.3,11-6,11.1c-2.3,6.6-6,12.3-10.2,16v7.2l1.2,2.9c6.3,1.5,20.2,5.3,24.8,10.9c2.6,3.2,5.1,25.8,5.4,28.4l0,0.5H214V28
				H105z"/>
		</defs>
		<clipPath id="SVGID_2_">
			<use xlink:href="#SVGID_1_"  style="overflow:visible;"/>
		</clipPath>
		<g class="st9">
			<path class="st10" d="M187.2,68.6c-0.6-0.2-1.3-0.4-2.1-0.4c-0.7,0-1.4,0.1-2.1,0.2c0.2,0,0.3,0,0.5,0
				C184.7,68.4,185.9,68.4,187.2,68.6z"/>
			<path class="st1" d="M190.4,120.2L190.4,120.2l0-1c-7.7-0.4-10.7-2.4-14-6.3v7.3l0,0C176.5,126.4,190.3,127.8,190.4,120.2z"/>
			<path class="st1" d="M190.4,119.2v-6.7c-2.1,1.8-4.5,2.8-7,2.8c-2.5,0-4.9-1.1-7-2.8v0.4C179.7,116.8,182.7,118.8,190.4,119.2z"
				/>
			<path class="st1" d="M167.7,89.7C167.7,89.7,167.7,89.7,167.7,89.7c0.2,0,0.5-0.1,0.8-0.1C168.2,89.6,167.9,89.6,167.7,89.7z"/>
			<path class="st1" d="M177.2,79.2c-3.1,2-5.7,4.9-6.3,8c-0.1,0.4-0.2,1.6-0.4,2.9c-0.3,2.3-0.7,5.1-0.7,5.1l-1-5.7
				c-0.1,0-0.1,0-0.2,0c-0.3,0-0.5,0-0.8,0.1c-1.5,0.4-2.6,1.6-2.6,4.2c0,3.2,1.6,7.1,3.6,7.1c0.1,0,0.3,0,0.4,0
				c1.5,4.6,4.1,8.9,7.3,11.5c2.1,1.7,4.5,2.8,7,2.8V84.4C179.8,82.8,177.7,80.5,177.2,79.2z"/>
			<path class="st3" d="M199.2,89.7C199.2,89.7,199.2,89.7,199.2,89.7c-0.2-0.1-0.5-0.1-0.9-0.1l-1.2,5.4c0,0-0.2-6-0.5-7.2
				c-0.2-1.7-0.7-2.8-1.8-3.1c-1-0.3-3.6,0-7.2-0.9c1.5,0.7,2.1,0.9,3.4,1.1c-1,0-2.1,0-3.2-0.1c1.7,0.5,3.5,0.9,5.1,1c0,0,0,0,0,0
				c-2.3,0.2-5.5-0.1-8-0.9c-0.5-0.2-1-0.4-1.5-0.6v30.9c2.5,0,4.9-1.1,7-2.8c3.2-2.7,5.8-6.9,7.3-11.5c0.1,0,0.3,0,0.4,0
				c2,0,3.6-3.9,3.6-7.1C201.8,91.3,200.7,90,199.2,89.7z"/>
			<path class="st11" d="M208.7,127.9c-3.8-4.6-18.3-7.7-18.3-7.7l0,0c-0.1,7.6-14,6.2-14,0l0,0c0,0-11.3,2.3-16.5,6.1
				c-2,1.4-3.9,6.8-4.8,17.7H212C212,144,210.5,130,208.7,127.9z"/>
			<path class="st4" d="M168.5,89.6c0.1,0,0.1,0,0.2,0l1,5.7c0,0,0.4-2.8,0.7-5.1c0.2-1.4,0.4-2.6,0.4-2.9c0.6-3.2,3.2-6,6.3-8
				c0.6,1.3,2.6,3.6,6.3,5.1c0.5,0.2,1,0.4,1.5,0.6c2.4,0.8,5.6,1.1,8,0.9c0,0,0,0,0,0c-1.6-0.1-3.3-0.5-5.1-1
				C188.9,85,190,85,191,85c-1.3-0.2-1.9-0.4-3.4-1.1c3.6,0.8,6.2,0.6,7.2,0.9c1.1,0.3,1.5,1.4,1.8,3.1c0.2,1.3,0.5,7.2,0.5,7.2
				l1.2-5.4c0.4,0,0.7,0.1,0.9,0.1c0.4,0.1,0.6,0.2,0.6,0.2s0.7-3.2,0.6-7.2c-0.1-4-2.1-9.2-6.9-11.9c-2.2-1.2-4.1-1.8-5.7-2.1
				c-0.8-0.6-2-1-3.4-1.1c-1.3,0-2.3,0.2-3.1,0.7c-0.2-0.1-0.4-0.1-0.7-0.1c-0.9-0.1-1.9,0.1-2.4,0.4c0.5-0.1,1.1-0.2,1.7-0.1
				c0.1,0,0.2,0,0.3,0.1c-1.9,0.2-4,0.8-6.6,2.2c-4.8,2.7-6.8,7.9-6.9,11.9c-0.1,4,0.6,7.2,0.6,7.2s0.2-0.1,0.5-0.2
				C167.9,89.6,168.2,89.6,168.5,89.6z M185,68.2c0.8,0,1.5,0.2,2.1,0.4c-1.3-0.2-2.5-0.2-3.7-0.2c-0.2,0-0.3,0-0.5,0
				C183.6,68.3,184.3,68.2,185,68.2z"/>
		</g>
	</g>
</g>
<g class="st12">
	<path class="st3" d="M21.5,38c-0.8,0-1.5,0.7-1.5,1.5v6c0,0.8,0.7,1.5,1.5,1.5H54v-9H21.5z M35,40h11v1H35V40z M29,40h5v1h-5V40z
		 M24.5,45c-1.4,0-2.5-1.1-2.5-2.5c0-1.4,1.1-2.5,2.5-2.5s2.5,1.1,2.5,2.5C27,43.9,25.9,45,24.5,45z M42,45H29v-1h13V45z M52,43H29
		v-1h23V43z"/>
	<rect x="35" y="40" class="st13" width="11" height="1"/>
	<path class="st14" d="M20,45.5v1c0,0.8,0.7,1.5,1.5,1.5H54v-1H21.5C20.7,47,20,46.3,20,45.5z"/>
	<circle class="st15" cx="24.5" cy="42.5" r="2.5"/>
	<rect x="29" y="40" class="st13" width="5" height="1"/>
	<rect x="29" y="42" class="st15" width="23" height="1"/>
	<rect x="29" y="44" class="st15" width="13" height="1"/>
</g>
<g class="st12">
	<path class="st3" d="M21.5,50c-0.8,0-1.5,0.7-1.5,1.5v6c0,0.8,0.7,1.5,1.5,1.5H54v-9H21.5z M35,52h11v1H35V52z M29,52h5v1h-5V52z
		 M24.5,57c-1.4,0-2.5-1.1-2.5-2.5c0-1.4,1.1-2.5,2.5-2.5s2.5,1.1,2.5,2.5C27,55.9,25.9,57,24.5,57z M42,57H29v-1h13V57z M52,55H29
		v-1h23V55z"/>
	<rect x="35" y="52" class="st13" width="11" height="1"/>
	<path class="st14" d="M20,57.5v1c0,0.8,0.7,1.5,1.5,1.5H54v-1H21.5C20.7,59,20,58.3,20,57.5z"/>
	<circle class="st15" cx="24.5" cy="54.5" r="2.5"/>
	<rect x="29" y="52" class="st13" width="5" height="1"/>
	<rect x="29" y="54" class="st15" width="23" height="1"/>
	<rect x="29" y="56" class="st15" width="13" height="1"/>
</g>
<g class="st12">
	<path class="st3" d="M21.5,62c-0.8,0-1.5,0.7-1.5,1.5v6c0,0.8,0.7,1.5,1.5,1.5H54v-9H21.5z M35,64h11v1H35V64z M29,64h5v1h-5V64z
		 M24.5,69c-1.4,0-2.5-1.1-2.5-2.5c0-1.4,1.1-2.5,2.5-2.5s2.5,1.1,2.5,2.5C27,67.9,25.9,69,24.5,69z M42,69H29v-1h13V69z M52,67H29
		v-1h23V67z"/>
	<rect x="35" y="64" class="st13" width="11" height="1"/>
	<path class="st14" d="M20,69.5v1c0,0.8,0.7,1.5,1.5,1.5H54v-1H21.5C20.7,71,20,70.3,20,69.5z"/>
	<circle class="st15" cx="24.5" cy="66.5" r="2.5"/>
	<rect x="29" y="64" class="st13" width="5" height="1"/>
	<rect x="29" y="66" class="st15" width="23" height="1"/>
	<rect x="29" y="68" class="st15" width="13" height="1"/>
</g>
<g>
	<defs>
		<path id="SVGID_3_" d="M113.8,112.7c4.7-3.4,12.7-6,18.2-7.5V88.3c-2.1-3-3.8-6.4-5.1-10.2c-3.8,0-6.1-6.5-6.1-11.1
			c0-3.7,1.4-5.5,2.8-6.4c-0.3-1.5-0.8-5.3-0.7-9.8c0.2-5.6,2.6-12.8,9.1-17V22H42v110h65.1C109.3,115.8,111.1,114.6,113.8,112.7z"
			/>
	</defs>
	<clipPath id="SVGID_4_">
		<use xlink:href="#SVGID_3_"  style="overflow:visible;"/>
	</clipPath>
	<g class="st16">
		<path class="st17" d="M96.1,119.8v-3.2H84.8V86H69.9c-1.2,0-2.3-0.4-3.1-1.1c-1.1-0.9-1.9-2.3-1.9-3.9V30c0-2.7-2.2-5-5-5
			c-2.7,0-5,2.2-5,5v89.9c0,2.7-2.2,5-5,5h10.3h30.8C93.8,124.8,96.1,122.6,96.1,119.8z"/>
		<path class="st14" d="M79.9,44.2L79.9,44.2c-2.8,0-5,2.2-5,5V81c0,2.7-2.2,5-5,5h14.9V49.2C84.8,46.4,82.6,44.2,79.9,44.2z"/>
		<rect x="90.6" y="103.9" class="st10" width="29.7" height="1.2"/>
		<rect x="90.6" y="100.3" class="st10" width="29.7" height="1.2"/>
		<rect x="90.6" y="96.7" class="st10" width="29.7" height="1.2"/>
		<rect x="90.6" y="93.1" class="st10" width="29.7" height="1.2"/>
		<rect x="90.6" y="89.5" class="st10" width="29.7" height="1.2"/>
		<rect x="90.6" y="85.9" class="st10" width="29.7" height="1.2"/>
		<rect x="90.6" y="107.4" class="st10" width="29.7" height="1.2"/>
		<rect x="111.5" y="60.8" class="st10" width="8.8" height="1.2"/>
		<rect x="90.6" y="54.3" class="st10" width="29.7" height="3.6"/>
		<rect x="90.6" y="82.3" class="st10" width="29.7" height="1.2"/>
		<rect x="111.5" y="64.4" class="st10" width="8.8" height="1.2"/>
		<rect x="111.5" y="68" class="st10" width="8.8" height="1.2"/>
		<rect x="111.5" y="71.6" class="st10" width="8.8" height="1.2"/>
		<rect x="90.6" y="78.8" class="st10" width="29.7" height="1.2"/>
		<rect x="111.5" y="75.2" class="st10" width="8.8" height="1.2"/>
		<g class="st18">
			<path class="st1" d="M45,119.8c0,2.7,2.2,5,5,5c2.7,0,5-2.2,5-5v-4.2h-4.2v-1.2H55v-2.3h-4.2v-1.2H55v-2.3h-4.2v-1.2H55v-2.3
				h-4.2v-1.2H55v-2.3h-4.2v-1.2H55v-2.3h-4.2v-1.2H55v-2.3h-4.2v-1.2H55v-2.3h-4.2v-1.2H55v-9.1H45V119.8z"/>
			<path class="st1" d="M124.5,45.6c-1-1-2.2-1.5-3.5-1.5h-14.9V30c0-1.3-0.5-2.5-1.5-3.5c-1-1-2.2-1.5-3.5-1.5h-5H59.9
				c2.7,0,5,2.2,5,5V81c0,1.6,0.7,3,1.9,3.9c0.9,0.7,1.9,1.1,3.1,1.1c2.8,0,5-2.2,5-5v-6.9h-4.3v-1.2h4.3v-2.3h-4.3v-1.2h4.3v-2.3
				h-4.3v-1.2h4.3v-2.3h-4.3v-1.2h4.3v-2.3h-4.3v-1.2h4.3v-2.3h-4.3v-1.2h4.3v-2.3h-4.3v-1.2h4.3v-2.2c0,0,0-0.1,0-0.1h-4.3v-1.2
				h4.5c0.3-0.9,0.8-1.7,1.5-2.3l0,0h-6v-1.2h9.2v0c0,0,0,0,0,0c0,0,0.1,0,0.1,0h0.1c2.7,0,4.9,2.2,4.9,5V86v30.6h11.3H126V49.2
				C126,47.9,125.5,46.6,124.5,45.6z M70.6,33.4h29.7v1.2H70.6V33.4z M70.6,37h29.7v1.2H70.6V37z M70.6,41.8v-1.2h29.7v1.2H70.6z
				 M90.6,60.8H109v15.6H90.6V60.8z M120.3,108.7H90.6v-1.2h29.7V108.7z M120.3,105.1H90.6v-1.2h29.7V105.1z M120.3,101.5H90.6v-1.2
				h29.7V101.5z M120.3,97.9H90.6v-1.2h29.7V97.9z M120.3,94.3H90.6v-1.2h29.7V94.3z M120.3,90.8H90.6v-1.2h29.7V90.8z M120.3,87.2
				H90.6v-1.2h29.7V87.2z M120.3,83.6H90.6v-1.2h29.7V83.6z M120.3,80H90.6v-1.2h29.7V80z M120.3,76.4h-8.8v-1.2h8.8V76.4z
				 M120.3,72.8h-8.8v-1.2h8.8V72.8z M120.3,69.3h-8.8V68h8.8V69.3z M120.3,65.7h-8.8v-1.2h8.8V65.7z M120.3,62.1h-8.8v-1.2h8.8
				V62.1z M120.3,57.9H90.6v-3.6h29.7V57.9z"/>
		</g>
		<rect x="90.6" y="60.8" class="st14" width="18.4" height="15.6"/>
	</g>
</g>
</svg>
