<?xml version="1.0" encoding="utf-8"?>
<!-- Generator: Adobe Illustrator 21.0.0, SVG Export Plug-In . SVG Version: 6.00 Build 0)  -->
<svg version="1.1" id="Layer_1" xmlns="http://www.w3.org/2000/svg" xmlns:xlink="http://www.w3.org/1999/xlink" x="0px" y="0px"
	 width="32px" height="32px" viewBox="0 0 32 32" style="enable-background:new 0 0 32 32;" xml:space="preserve">
<path d="M23,10h-7c-2,0-3,1-3,3v3h2v-3h9v16h-9v-3h-2v3c0,2,1,3,3,3h7c2,0,3-1,3-3V13C26,11,25,10,23,10z"/>
<g>
	<path d="M8.3,22.9H6.5L6.2,24H4.8l1.8-5.7h1.4L9.9,24H8.6L8.3,22.9z M6.8,21.9H8l-0.6-2h0L6.8,21.9z"/>
	<path d="M12.6,18.3l1.3,4h0l1.3-4h1.7V24h-1.3v-1.4l0.1-2.6l0,0l-1.4,4h-0.9l-1.4-4l0,0l0.1,2.6V24h-1.3v-5.7H12.6z"/>
	<path d="M19.7,22V24h-1.3v-5.7h2.3c0.7,0,1.2,0.2,1.6,0.5s0.6,0.8,0.6,1.4c0,0.6-0.2,1-0.6,1.4S21.4,22,20.7,22H19.7z M19.7,21h1
		c0.3,0,0.5-0.1,0.7-0.2s0.2-0.4,0.2-0.6c0-0.3-0.1-0.5-0.2-0.6s-0.4-0.2-0.7-0.2h-1V21z"/>
</g>
</svg>
