<?xml version="1.0" encoding="utf-8"?>
<!-- Generator: Adobe Illustrator 21.0.0, SVG Export Plug-In . SVG Version: 6.00 Build 0)  -->
<svg version="1.1" id="Layer_1" xmlns="http://www.w3.org/2000/svg" xmlns:xlink="http://www.w3.org/1999/xlink" x="0px" y="0px"
	 width="32px" height="32px" viewBox="0 0 32 32" style="enable-background:new 0 0 32 32;" xml:space="preserve">
<path d="M23,6H9C7.5,6,6,7.5,6,9v20c0,1.5,1.5,3,3,3h14c1.5,0,3-1.5,3-3V9C26,7.5,24.5,6,23,6z M16,31.4c-1.1,0-1.9-0.9-1.9-1.9
	s0.9-1.9,1.9-1.9s1.9,0.9,1.9,1.9S17.1,31.4,16,31.4z M24,27H8V9h16V27z"/>
</svg>
