<?xml version="1.0" encoding="utf-8"?>
<!-- Generator: Adobe Illustrator 21.0.0, SVG Export Plug-In . SVG Version: 6.00 Build 0)  -->
<svg version="1.1" id="Layer_1" xmlns="http://www.w3.org/2000/svg" xmlns:xlink="http://www.w3.org/1999/xlink" x="0px" y="0px"
	 width="32px" height="32px" viewBox="0 0 32 32" style="enable-background:new 0 0 32 32;" xml:space="preserve">
<g>
	<path d="M10,30H7v-9h16v3h3v-2c0-2-1-3-3-3H7c-2,0-3,1-3,3v7c0,2,1,3,3,3h3V30z"/>
	<g>
		<path d="M15.8,30.9H14L13.7,32h-1.3l1.8-5.7h1.4l1.8,5.7h-1.3L15.8,30.9z M14.3,29.9h1.2l-0.6-2h0L14.3,29.9z"/>
		<path d="M20.1,26.3l1.3,4h0l1.3-4h1.7V32h-1.3v-1.4l0.1-2.6l0,0l-1.4,4H21l-1.4-4l0,0l0.1,2.6V32h-1.3v-5.7H20.1z"/>
		<path d="M27.2,30.1V32h-1.3v-5.7h2.3c0.7,0,1.2,0.2,1.6,0.5s0.6,0.8,0.6,1.4c0,0.6-0.2,1-0.6,1.4s-0.9,0.5-1.6,0.5H27.2z M27.2,29
			h1c0.3,0,0.5-0.1,0.7-0.2s0.2-0.4,0.2-0.6c0-0.3-0.1-0.5-0.2-0.6s-0.4-0.2-0.7-0.2h-1V29z"/>
	</g>
</g>
</svg>
