<svg id="Layer_1" data-name="Layer 1" xmlns="http://www.w3.org/2000/svg" width="124" height="32" viewBox="0 0 124 32">
  <g>
    <path d="M38.048,13.081A1.533,1.533,0,0,0,36.557,12a0.98,0.98,0,0,0-1.192.923c0,1.439,4.306,1.134,4.306,3.845,0,1.714-1.08,2.573-2.93,2.573a3.317,3.317,0,0,1-3.127-1.981l1.321-.583a1.909,1.909,0,0,0,1.817,1.31,1.162,1.162,0,0,0,1.413-1.111c0-1.643-4.308-1.319-4.308-3.892a2.437,2.437,0,0,1,2.7-2.337,3.046,3.046,0,0,1,2.952,1.887Z" fill="#58595b"/>
    <path d="M44.706,12.085c-1.309,0-1.908,1-1.908,2.954-0.025,1.955.588,2.953,1.908,2.953s1.911-1,1.911-2.953-0.6-2.954-1.911-2.954m0,7.253c-2.28,0-3.507-1.565-3.507-4.3s1.227-4.3,3.507-4.3,3.51,1.562,3.51,4.3-1.227,4.3-3.51,4.3" fill="#58595b"/>
    <path d="M54.828,10.86h1.6V16.1a2.907,2.907,0,0,1-3.207,3.243A2.907,2.907,0,0,1,50.009,16.1V10.86h1.6v5.307c0,1.354.53,1.826,1.608,1.826s1.61-.472,1.61-1.826V10.86Z" fill="#58595b"/>
    <path d="M60.361,14.52h1.178c1.251,0,1.635-.394,1.635-1.181a1.138,1.138,0,0,0-1.353-1.184h-1.46V14.52Zm-1.6,4.7V10.86H62.1a2.35,2.35,0,0,1,2.673,2.479,2.061,2.061,0,0,1-1.527,2.151l1.843,3.732H63.313l-1.575-3.407H60.361v3.407h-1.6Z" fill="#58595b"/>
    <path d="M71.364,13.29a1.563,1.563,0,0,0-1.521-1.2c-1.066,0-1.712,1-1.712,2.954-0.022,1.955.552,2.953,1.76,2.953a1.645,1.645,0,0,0,1.631-1.241L73,17.146a3.048,3.048,0,0,1-3.113,2.192c-2.132,0-3.361-1.565-3.361-4.3s1.23-4.3,3.361-4.3a2.693,2.693,0,0,1,2.921,2.2Z" fill="#58595b"/>
    <polygon points="74.776 19.222 74.776 10.86 80.311 10.86 80.311 12.202 76.372 12.202 76.372 14.194 79.236 14.194 79.236 15.538 76.372 15.538 76.372 17.877 80.44 17.877 80.44 19.222 74.776 19.222" fill="#58595b"/>
    <polygon points="82.474 19.222 82.474 10.86 87.804 10.86 87.804 12.202 84.074 12.202 84.074 14.194 86.865 14.194 86.865 15.538 84.074 15.538 84.074 19.222 82.474 19.222" fill="#58595b"/>
    <path d="M90.652,16.1H92.6l-0.943-3.638H91.633Zm-0.026-5.247H92.62l2.371,8.374H93.409l-0.464-1.808H90.305l-0.5,1.808H88.221Z" fill="#58595b"/>
    <path d="M98.477,17.921h1.6a1.117,1.117,0,0,0,1.334-1.213,1.121,1.121,0,0,0-1.334-1.218h-1.6v2.431Zm0-3.727h1.6a1.027,1.027,0,1,0,0-2.04h-1.6v2.04Zm-1.6-3.334h3.1c1.669,0,2.744.554,2.835,2.047a1.869,1.869,0,0,1-1.271,1.9,1.962,1.962,0,0,1,1.457,2.21c0,1.3-.914,2.2-3.047,2.2H96.881V10.86Z" fill="#58595b"/>
    <path d="M106.853,14.52h1.177c1.252,0,1.634-.394,1.634-1.181a1.137,1.137,0,0,0-1.353-1.184h-1.457V14.52Zm-1.6,4.7V10.86h3.336a2.352,2.352,0,0,1,2.674,2.479,2.063,2.063,0,0,1-1.527,2.151l1.842,3.732H109.8l-1.574-3.407h-1.375v3.407h-1.6Z" fill="#58595b"/>
    <rect x="113.731" y="10.86" width="1.592" height="8.362" fill="#58595b"/>
    <path d="M122.354,13.29a1.557,1.557,0,0,0-1.517-1.2c-1.063,0-1.713,1-1.713,2.954-0.025,1.955.555,2.953,1.76,2.953a1.652,1.652,0,0,0,1.633-1.241L124,17.146a3.054,3.054,0,0,1-3.116,2.192c-2.132,0-3.356-1.565-3.356-4.3s1.224-4.3,3.356-4.3a2.694,2.694,0,0,1,2.921,2.2Z" fill="#58595b"/>
    <polygon points="8.504 7.563 0 25.087 18.279 32 34.012 26.599 14.603 19.244 21.726 0 8.504 7.563" fill="#58595b"/>
  </g>
</svg>
